<!-- Created with Inkscape (http://www.inkscape.org/) -->
<svg xmlns:rdf="http://www.w3.org/1999/02/22-rdf-syntax-ns#" xmlns="http://www.w3.org/2000/svg" height="100" width="200" version="1.1" xmlns:cc="http://creativecommons.org/ns#" xmlns:xlink="http://www.w3.org/1999/xlink" xmlns:dc="http://purl.org/dc/elements/1.1/">
<defs>
<linearGradient id="linearGradient3763" y2="1002" gradientUnits="userSpaceOnUse" x2="194.6" y1="1002" x1="5.384">
<stop stop-color="#4e197f" offset="0"/>
<stop stop-color="#445b9f" offset="1"/>
</linearGradient>
</defs>
<g fill="url(#linearGradient3763)">
<path d="m17.71,969.6,17.24-3.207c-4.811,18.51-8.52,35.58-11.13,51.22l17.64-2.706-1.503,18.64c-9.087,0.8019-20.61,3.107-34.58,6.916l12.33-71.4"/>
<path d="m78.45,962c7.083,0.00008,12.09,3.942,15.03,11.83,1.537,4.076,2.305,8.553,2.305,13.43-0.000053,4.677-0.7017,9.756-2.105,15.23-2.472,9.355-6.749,17.97-12.83,25.86-7.417,9.622-15.27,14.43-23.55,14.43-7.15,0-12.23-3.942-15.23-11.83-1.47-3.876-2.205-8.219-2.205-13.03,0.000003-4.744,0.735-9.889,2.205-15.44,2.472-9.421,6.715-18.07,12.73-25.96,7.417-9.689,15.3-14.53,23.65-14.53m-3.608,24.86c-3.675,0.00005-7.417,3.007-11.23,9.021-3.074,4.744-5.212,9.388-6.415,13.93-0.6014,2.406-0.9021,4.577-0.9021,6.515-0.000013,2.74,0.6682,4.978,2.005,6.715,1.537,1.938,3.675,2.907,6.415,2.907,3.742,0,7.116-1.971,10.12-5.914,2.405-3.14,4.143-6.849,5.212-11.13,1.27-5.011,1.537-9.956,0.8018-14.83-0.8019-4.811-2.806-7.216-6.014-7.217"/>
<path d="m106.8,1043c-7.083,0-12.09-3.809-15.03-11.43-1.537-3.809-2.305-8.085-2.305-12.83,0.000003-4.477,0.7016-9.388,2.105-14.73,2.339-9.154,6.515-17.54,12.53-25.16,7.283-9.288,15.03-13.93,23.25-13.93,7.15,0.00007,12.19,3.942,15.13,11.83l-11.13,11.93c-1.203-1.804-2.974-2.706-5.312-2.706-4.544,0.00005-8.82,3.141-12.83,9.422-3.007,4.744-5.245,9.99-6.715,15.74-0.6014,2.272-0.9021,4.31-0.9021,6.114-0.00001,2.74,0.7016,4.945,2.105,6.615,1.537,1.871,3.675,2.806,6.415,2.806,3.14,0.0001,6.047-1.437,8.72-4.31,2.138-2.272,3.876-5.145,5.212-8.62-4.945,1.002-9.522,2.038-13.73,3.107l3.207-14.83,26.56-5.613c0.1336,4.343-0.8019,9.321-2.806,14.93-1.804,4.945-4.043,9.488-6.715,13.63-7.818,12.03-17.07,18.04-27.76,18.04"/>
<path d="m177.3,962c7.083,0.00008,12.09,3.942,15.03,11.83,1.537,4.076,2.305,8.553,2.305,13.43-0.00005,4.677-0.7017,9.756-2.105,15.23-2.472,9.355-6.749,17.97-12.83,25.86-7.417,9.622-15.27,14.43-23.55,14.43-7.15,0-12.23-3.942-15.23-11.83-1.47-3.876-2.205-8.219-2.205-13.03,0.00001-4.744,0.735-9.889,2.205-15.44,2.472-9.421,6.715-18.07,12.73-25.96,7.417-9.689,15.3-14.53,23.65-14.53m-3.608,24.86c-3.675,0.00005-7.417,3.007-11.23,9.021-3.074,4.744-5.212,9.388-6.415,13.93-0.6014,2.406-0.9021,4.577-0.9021,6.515-0.00001,2.74,0.6682,4.978,2.005,6.715,1.537,1.938,3.675,2.907,6.415,2.907,3.742,0,7.116-1.971,10.12-5.914,2.405-3.14,4.143-6.849,5.212-11.13,1.27-5.011,1.537-9.956,0.8018-14.83-0.8019-4.811-2.806-7.216-6.014-7.217"/>
</g>
</svg>
